<?xml version="1.0" standalone="no"?>
<!DOCTYPE svg PUBLIC "-//W3C//DTD SVG 20010904//EN"
 "http://www.w3.org/TR/2001/REC-SVG-20010904/DTD/svg10.dtd">
<svg version="1.0" xmlns="http://www.w3.org/2000/svg"
 width="600.000000pt" height="800.000000pt" viewBox="0 0 600.000000 800.000000"
 preserveAspectRatio="xMidYMid meet">

<g transform="translate(0.000000,800.000000) scale(0.100000,-0.100000)"
fill="#000000" stroke="none">
<path d="M2005 7275 c-86 -22 -288 -94 -323 -115 -31 -19 -50 -66 -33 -83 6
-6 15 1 25 20 10 20 32 37 65 52 27 11 53 21 56 21 4 0 -12 -21 -36 -47 -23
-27 -56 -77 -73 -113 l-31 -65 0 -285 0 -286 34 -74 c55 -121 166 -274 275
-382 81 -80 115 -106 195 -147 53 -27 121 -59 151 -70 89 -35 278 -61 433 -61
l137 0 88 44 c88 44 219 147 265 208 54 71 180 276 217 353 56 119 73 190 68
282 -7 118 -62 230 -171 349 -66 72 -139 113 -337 190 -91 36 -199 80 -240 99
-243 110 -266 115 -510 121 -152 3 -208 0 -255 -11z m459 -35 c46 -7 112 -29
195 -66 69 -30 196 -82 281 -115 209 -81 292 -123 355 -181 67 -61 139 -166
165 -240 23 -65 27 -187 9 -253 -20 -74 -98 -223 -184 -354 -107 -163 -188
-240 -329 -312 l-99 -52 -146 6 c-239 9 -349 34 -529 124 -79 40 -110 63 -196
148 -112 110 -206 239 -261 361 l-35 76 0 271 c0 249 2 274 21 327 24 66 107
172 141 181 13 3 22 12 22 22 -1 12 14 21 55 33 31 9 67 20 81 25 36 11 373
10 454 -1z"/>
<path d="M431 6038 c1 -68 4 -134 8 -148 4 -13 45 -58 91 -99 47 -41 101 -88
120 -105 19 -17 55 -46 80 -65 25 -19 82 -63 127 -97 44 -35 146 -98 225 -140
159 -85 246 -144 358 -239 89 -76 326 -243 390 -275 25 -12 59 -33 76 -45 17
-13 75 -47 130 -76 54 -29 131 -71 169 -95 80 -49 159 -74 176 -57 18 18 3 30
-42 36 -23 3 -67 22 -98 41 -31 20 -101 59 -156 87 -55 28 -121 66 -147 85
-26 18 -70 45 -98 59 -59 30 -266 171 -321 219 -156 136 -281 221 -445 304
-105 54 -288 181 -384 268 -14 12 -66 59 -117 104 -108 95 -113 106 -113 258
0 84 -3 102 -15 102 -13 0 -15 -20 -14 -122z"/>
<path d="M4627 6044 c-4 -4 -7 -22 -7 -39 0 -17 -16 -96 -36 -176 -37 -149
-96 -289 -137 -327 -12 -11 -71 -38 -132 -60 -210 -77 -329 -131 -645 -295
-118 -62 -278 -142 -355 -178 -77 -37 -166 -83 -198 -102 -33 -20 -73 -39 -90
-42 -18 -4 -79 -29 -137 -56 -130 -60 -278 -99 -378 -99 -54 0 -73 -3 -70 -12
3 -9 32 -14 86 -16 101 -4 239 31 361 89 46 23 107 48 135 56 28 8 62 22 75
30 23 15 558 287 811 413 126 63 305 140 445 190 50 19 100 42 113 54 12 11
45 65 72 120 73 150 140 441 104 453 -5 2 -13 0 -17 -3z"/>
<path d="M2392 5093 c3 -455 6 -510 26 -633 12 -74 29 -218 38 -320 19 -212
29 -304 44 -410 5 -41 19 -156 30 -255 86 -779 83 -754 110 -877 l22 -97 -94
-93 c-51 -51 -110 -115 -130 -143 -20 -27 -79 -106 -130 -175 -51 -69 -106
-147 -122 -175 -16 -27 -87 -144 -159 -260 -208 -334 -245 -375 -341 -375 -43
0 -56 -3 -56 -15 0 -12 14 -15 66 -15 55 0 71 4 100 27 36 27 111 118 149 180
11 18 54 87 96 155 42 68 107 172 143 233 65 105 171 255 294 414 70 90 221
233 239 227 15 -6 225 -155 318 -226 33 -25 73 -54 88 -63 44 -28 176 -157
207 -202 27 -40 121 -217 275 -520 119 -235 98 -215 219 -215 67 0 128 7 181
20 44 11 90 22 103 25 23 6 30 29 12 40 -6 4 -16 2 -23 -3 -23 -19 -200 -52
-275 -52 -91 0 -76 -15 -178 185 -163 324 -258 502 -294 549 -40 54 -132 145
-190 187 -19 14 -96 70 -170 124 -74 54 -161 118 -193 142 -33 24 -69 43 -82
43 -17 0 -24 7 -28 28 -2 15 -12 61 -20 102 -17 81 -40 246 -57 405 -48 440
-73 661 -89 790 -19 140 -28 228 -52 498 -5 60 -14 127 -21 150 -7 28 -13 224
-17 567 -6 495 -7 525 -24 528 -17 4 -18 -19 -15 -495z"/>
<path d="M5000 3983 c0 -236 -3 -342 -11 -350 -15 -15 -3 -33 21 -33 17 0 20
9 22 93 l3 92 243 3 c188 2 243 5 239 15 -3 9 -66 13 -243 17 l-239 5 -5 244
c-4 183 -8 245 -17 249 -10 3 -13 -69 -13 -335z"/>
<path d="M4350 4269 c-60 -21 -86 -41 -76 -58 10 -16 31 -14 46 4 23 27 30 16
30 -49 0 -97 34 -129 184 -175 57 -18 94 -21 230 -21 130 0 166 3 184 16 30
21 28 59 -5 91 -54 50 -238 186 -270 200 -52 21 -254 16 -323 -8z m326 -32
c28 -16 212 -158 243 -188 23 -22 23 -23 5 -36 -15 -12 -52 -14 -179 -10 -170
4 -243 20 -317 71 -32 21 -33 24 -36 99 l-3 77 133 0 c87 0 140 -5 154 -13z"/>
<path d="M3128 4038 c-84 -87 -98 -107 -98 -135 0 -41 26 -107 39 -99 5 3 7
-2 4 -12 -2 -10 2 -24 10 -30 31 -26 153 -63 226 -69 136 -10 226 23 329 121
35 34 42 46 42 79 0 51 -31 80 -147 140 -122 62 -207 96 -262 102 l-46 5 -97
-102z m232 36 c80 -32 216 -100 253 -126 63 -45 18 -124 -108 -188 -61 -31
-66 -32 -171 -28 -88 2 -120 8 -166 27 l-58 25 0 44 c0 39 -2 44 -20 39 -17
-4 -20 0 -20 26 0 26 15 48 83 119 95 100 106 103 207 62z"/>
<path d="M3834 3420 c-6 -6 -168 -11 -429 -12 -391 -3 -420 -4 -423 -20 -3
-17 22 -18 425 -18 358 0 432 2 449 14 17 13 17 16 4 30 -11 11 -19 13 -26 6z"/>
<path d="M4363 3393 c-7 -2 -13 -12 -13 -21 0 -15 20 -17 213 -14 l214 3 7
-83 c4 -46 12 -112 17 -148 5 -36 12 -267 15 -515 l5 -450 -33 -20 c-33 -20
-50 -55 -28 -55 7 0 30 14 51 31 l39 31 0 436 c0 338 -4 462 -16 547 -8 61
-18 139 -21 175 -3 42 -11 69 -21 78 -12 9 -70 12 -216 11 -111 0 -207 -3
-213 -6z"/>
</g>
</svg>
